<svg width="32" height="55" viewBox="0 0 32 55" fill="none" xmlns="http://www.w3.org/2000/svg">
<rect width="8" height="8" transform="translate(8)" fill="white"/>
<rect width="8" height="8" transform="translate(24)" fill="white"/>
<rect width="8" height="8" transform="translate(0 8)" fill="white"/>
<rect width="8" height="8" transform="translate(8 8)" fill="#B91C1C"/>
<rect width="8" height="8" transform="translate(16 8)" fill="white"/>
<rect width="8" height="8" transform="translate(8 16)" fill="white"/>
<rect width="8" height="8" transform="translate(24 16)" fill="white"/>
<rect width="8" height="8" transform="translate(0 24)" fill="white"/>
<rect width="8" height="8" transform="translate(16 24)" fill="white"/>
<path d="M2.208 38.584V45.416C2.208 45.5973 2.24 45.72 2.304 45.784C2.368 45.848 2.496 45.88 2.688 45.88H3.136V47.016H2.24C1.728 47.016 1.34933 46.8987 1.104 46.664C0.869333 46.4187 0.752 46.0613 0.752 45.592V38.392C0.752 37.9333 0.869333 37.5867 1.104 37.352C1.34933 37.1067 1.728 36.984 2.24 36.984H3.232V38.12H2.688C2.496 38.12 2.368 38.152 2.304 38.216C2.24 38.2693 2.208 38.392 2.208 38.584ZM3.968 40.12V38.584C3.968 38.392 3.936 38.2693 3.872 38.216C3.81867 38.152 3.696 38.12 3.504 38.12H2.976V36.984H3.936C4.45867 36.984 4.83733 37.1067 5.072 37.352C5.31733 37.5867 5.44 37.9333 5.44 38.392V40.12H3.968ZM3.968 45.416V43.896H5.44V45.592C5.44 46.0613 5.31733 46.4187 5.072 46.664C4.83733 46.8987 4.45867 47.016 3.936 47.016H2.976V45.88H3.504C3.696 45.88 3.81867 45.848 3.872 45.784C3.936 45.72 3.968 45.5973 3.968 45.416ZM11.1833 47H9.74325V40.824C9.74325 40.632 9.71125 40.5093 9.64725 40.456C9.58325 40.392 9.45525 40.36 9.26325 40.36H8.70325C8.52192 40.36 8.38858 40.4027 8.30325 40.488C8.21792 40.5733 8.17525 40.7173 8.17525 40.92V41.4H8.11125V40.28C8.11125 39.896 8.20725 39.6187 8.39925 39.448C8.59125 39.2773 8.84725 39.192 9.16725 39.192H9.74325C10.2339 39.192 10.5966 39.3147 10.8313 39.56C11.0659 39.7947 11.1833 40.1467 11.1833 40.616V47ZM8.17525 47H6.73525V36.296H8.17525V47ZM19.6886 40.824V45.368C19.6886 45.5493 19.7206 45.672 19.7846 45.736C19.8486 45.8 19.9766 45.832 20.1686 45.832H20.5366V47H19.7366C19.2246 47 18.846 46.8827 18.6006 46.648C18.366 46.4027 18.2486 46.0507 18.2486 45.592V40.616C18.2486 40.1467 18.366 39.7947 18.6006 39.56C18.846 39.3147 19.2246 39.192 19.7366 39.192H20.6166V40.36H20.1686C19.9766 40.36 19.8486 40.392 19.7846 40.456C19.7206 40.5093 19.6886 40.632 19.6886 40.824ZM21.3366 41.656V40.824C21.3366 40.632 21.3046 40.5093 21.2406 40.456C21.1766 40.392 21.0486 40.36 20.8566 40.36H20.3926V39.192H21.2566C21.7793 39.192 22.158 39.3147 22.3926 39.56C22.638 39.7947 22.7606 40.1467 22.7606 40.616V41.656H21.3366ZM21.3366 45.368V44.536H22.7606V45.592C22.7606 46.0507 22.638 46.4027 22.3926 46.648C22.158 46.8827 21.7793 47 21.2566 47H20.3926V45.832H20.8566C21.0486 45.832 21.1766 45.8 21.2406 45.736C21.3046 45.672 21.3366 45.5493 21.3366 45.368ZM25.4096 47H23.9696V36.296H25.4096V47ZM25.6656 42.92H27.1376L28.9296 47H27.3936L25.6656 42.92ZM27.1376 42.92H25.6656L27.3936 39.192H28.9296L27.1376 42.92Z" fill="white"/>
<path d="M13.955 40.792V45.4C13.955 45.5813 13.987 45.704 14.051 45.768C14.115 45.832 14.243 45.864 14.435 45.864H14.835V47H14.035C13.523 47 13.1443 46.8827 12.899 46.648C12.6643 46.4027 12.547 46.0507 12.547 45.592V40.616C12.547 40.1467 12.6643 39.7947 12.899 39.56C13.1443 39.3147 13.523 39.192 14.035 39.192H14.915V40.328H14.435C14.243 40.328 14.115 40.36 14.051 40.424C13.987 40.4773 13.955 40.6 13.955 40.792ZM15.683 43.336V40.792C15.683 40.6 15.651 40.4773 15.587 40.424C15.5337 40.36 15.411 40.328 15.219 40.328H14.707V39.192H15.603C16.1257 39.192 16.5043 39.3147 16.739 39.56C16.9843 39.7947 17.107 40.1467 17.107 40.616V43.336H15.683ZM15.651 45.384V44.744H17.059V45.592C17.059 46.0507 16.9417 46.4027 16.707 46.648C16.4723 46.8827 16.0937 47 15.571 47H14.707V45.864H15.171C15.3737 45.864 15.5017 45.832 15.555 45.768C15.619 45.704 15.651 45.576 15.651 45.384ZM17.107 42.488V43.544H13.059V42.488H17.107Z" fill="#B91C1C"/>
</svg>
