<svg width="40" height="39" viewBox="0 0 40 39" fill="none" xmlns="http://www.w3.org/2000/svg">
<rect width="40" height="39" fill="black"/>
<rect width="8" height="8" transform="translate(4 3.5)" fill="black"/>
<rect width="8" height="8" transform="translate(12 3.5)" fill="white"/>
<rect width="8" height="8" transform="translate(20 3.5)" fill="black"/>
<rect width="8" height="8" transform="translate(28 3.5)" fill="white"/>
<rect width="8" height="8" transform="translate(4 11.5)" fill="white"/>
<rect width="8" height="8" transform="translate(12 11.5)" fill="black"/>
<rect width="8" height="8" transform="translate(12 11.5)" fill="#B91C1C"/>
<rect width="8" height="8" transform="translate(20 11.5)" fill="white"/>
<rect width="8" height="8" transform="translate(28 11.5)" fill="black"/>
<rect width="8" height="8" transform="translate(4 19.5)" fill="black"/>
<rect width="8" height="8" transform="translate(12 19.5)" fill="white"/>
<rect width="8" height="8" transform="translate(20 19.5)" fill="black"/>
<rect width="8" height="8" transform="translate(28 19.5)" fill="white"/>
<rect width="8" height="8" transform="translate(4 27.5)" fill="white"/>
<rect width="8" height="8" transform="translate(12 27.5)" fill="black"/>
<rect width="8" height="8" transform="translate(20 27.5)" fill="white"/>
<rect width="8" height="8" transform="translate(28 27.5)" fill="black"/>
</svg>
