<svg width="40" height="55" viewBox="0 0 40 55" fill="none" xmlns="http://www.w3.org/2000/svg">
<rect width="40" height="55" fill="black"/>
<rect width="8" height="8" transform="translate(4 4)" fill="black"/>
<rect width="8" height="8" transform="translate(12 4)" fill="white"/>
<rect width="8" height="8" transform="translate(20 4)" fill="black"/>
<rect width="8" height="8" transform="translate(28 4)" fill="white"/>
<rect width="8" height="8" transform="translate(4 12)" fill="white"/>
<rect width="8" height="8" transform="translate(12 12)" fill="#B91C1C"/>
<rect width="8" height="8" transform="translate(20 12)" fill="white"/>
<rect width="8" height="8" transform="translate(28 12)" fill="black"/>
<rect width="8" height="8" transform="translate(4 20)" fill="black"/>
<rect width="8" height="8" transform="translate(12 20)" fill="white"/>
<rect width="8" height="8" transform="translate(20 20)" fill="black"/>
<rect width="8" height="8" transform="translate(28 20)" fill="white"/>
<rect width="8" height="8" transform="translate(4 28)" fill="white"/>
<rect width="8" height="8" transform="translate(12 28)" fill="black"/>
<rect width="8" height="8" transform="translate(20 28)" fill="white"/>
<rect width="8" height="8" transform="translate(28 28)" fill="black"/>
<path d="M6.208 42.584V49.416C6.208 49.5973 6.24 49.72 6.304 49.784C6.368 49.848 6.496 49.88 6.688 49.88H7.136V51.016H6.24C5.728 51.016 5.34933 50.8987 5.104 50.664C4.86933 50.4187 4.752 50.0613 4.752 49.592V42.392C4.752 41.9333 4.86933 41.5867 5.104 41.352C5.34933 41.1067 5.728 40.984 6.24 40.984H7.232V42.12H6.688C6.496 42.12 6.368 42.152 6.304 42.216C6.24 42.2693 6.208 42.392 6.208 42.584ZM7.968 44.12V42.584C7.968 42.392 7.936 42.2693 7.872 42.216C7.81867 42.152 7.696 42.12 7.504 42.12H6.976V40.984H7.936C8.45867 40.984 8.83733 41.1067 9.072 41.352C9.31733 41.5867 9.44 41.9333 9.44 42.392V44.12H7.968ZM7.968 49.416V47.896H9.44V49.592C9.44 50.0613 9.31733 50.4187 9.072 50.664C8.83733 50.8987 8.45867 51.016 7.936 51.016H6.976V49.88H7.504C7.696 49.88 7.81867 49.848 7.872 49.784C7.936 49.72 7.968 49.5973 7.968 49.416ZM15.1833 51H13.7433V44.824C13.7433 44.632 13.7113 44.5093 13.6473 44.456C13.5833 44.392 13.4553 44.36 13.2633 44.36H12.7033C12.5219 44.36 12.3886 44.4027 12.3033 44.488C12.2179 44.5733 12.1753 44.7173 12.1753 44.92V45.4H12.1113V44.28C12.1113 43.896 12.2073 43.6187 12.3993 43.448C12.5913 43.2773 12.8473 43.192 13.1673 43.192H13.7433C14.2339 43.192 14.5966 43.3147 14.8313 43.56C15.0659 43.7947 15.1833 44.1467 15.1833 44.616V51ZM12.1753 51H10.7353V40.296H12.1753V51ZM23.6886 44.824V49.368C23.6886 49.5493 23.7206 49.672 23.7846 49.736C23.8486 49.8 23.9766 49.832 24.1686 49.832H24.5366V51H23.7366C23.2246 51 22.846 50.8827 22.6006 50.648C22.366 50.4027 22.2486 50.0507 22.2486 49.592V44.616C22.2486 44.1467 22.366 43.7947 22.6006 43.56C22.846 43.3147 23.2246 43.192 23.7366 43.192H24.6166V44.36H24.1686C23.9766 44.36 23.8486 44.392 23.7846 44.456C23.7206 44.5093 23.6886 44.632 23.6886 44.824ZM25.3366 45.656V44.824C25.3366 44.632 25.3046 44.5093 25.2406 44.456C25.1766 44.392 25.0486 44.36 24.8566 44.36H24.3926V43.192H25.2566C25.7793 43.192 26.158 43.3147 26.3926 43.56C26.638 43.7947 26.7606 44.1467 26.7606 44.616V45.656H25.3366ZM25.3366 49.368V48.536H26.7606V49.592C26.7606 50.0507 26.638 50.4027 26.3926 50.648C26.158 50.8827 25.7793 51 25.2566 51H24.3926V49.832H24.8566C25.0486 49.832 25.1766 49.8 25.2406 49.736C25.3046 49.672 25.3366 49.5493 25.3366 49.368ZM29.4096 51H27.9696V40.296H29.4096V51ZM29.6656 46.92H31.1376L32.9296 51H31.3936L29.6656 46.92ZM31.1376 46.92H29.6656L31.3936 43.192H32.9296L31.1376 46.92Z" fill="white"/>
<path d="M17.955 44.792V49.4C17.955 49.5813 17.987 49.704 18.051 49.768C18.115 49.832 18.243 49.864 18.435 49.864H18.835V51H18.035C17.523 51 17.1443 50.8827 16.899 50.648C16.6643 50.4027 16.547 50.0507 16.547 49.592V44.616C16.547 44.1467 16.6643 43.7947 16.899 43.56C17.1443 43.3147 17.523 43.192 18.035 43.192H18.915V44.328H18.435C18.243 44.328 18.115 44.36 18.051 44.424C17.987 44.4773 17.955 44.6 17.955 44.792ZM19.683 47.336V44.792C19.683 44.6 19.651 44.4773 19.587 44.424C19.5337 44.36 19.411 44.328 19.219 44.328H18.707V43.192H19.603C20.1257 43.192 20.5043 43.3147 20.739 43.56C20.9843 43.7947 21.107 44.1467 21.107 44.616V47.336H19.683ZM19.651 49.384V48.744H21.059V49.592C21.059 50.0507 20.9417 50.4027 20.707 50.648C20.4723 50.8827 20.0937 51 19.571 51H18.707V49.864H19.171C19.3737 49.864 19.5017 49.832 19.555 49.768C19.619 49.704 19.651 49.576 19.651 49.384ZM21.107 46.488V47.544H17.059V46.488H21.107Z" fill="#B91C1C"/>
</svg>
